<svg xmlns="http://www.w3.org/2000/svg" xmlns:xlink="http://www.w3.org/1999/xlink" width="40" height="40" viewBox="0 0 40 40">
  <defs>
    <clipPath id="clip-EditPrefab">
      <rect width="40" height="40"/>
    </clipPath>
  </defs>
  <g id="EditPrefab" clip-path="url(#clip-EditPrefab)">
    <path id="Path_781" data-name="Path 781" d="M-9991.4-10476.588l15.258,9.467v-13.132l-15.258-8.935Z" transform="translate(9998.217 10502.738)" fill="#dadad9"/>
    <path id="Path_782" data-name="Path 782" d="M-9977.381-10466.9l11.186-8.363v-10.178l-4.245-5.136-6.94,10.618Z" transform="translate(9999.469 10502.412)" fill="#a4a4a4"/>
    <path id="Path_783" data-name="Path 783" d="M-9991.5-10488.09l15.4,8.858,6.979-10.689-14.965-7.5Z" transform="translate(9998.223 10501.805)" fill="#f2efef"/>
    <path id="Path_2983" data-name="Path 2983" d="M19.418,4.424c-.084-.34-.66-.65-.907-.4l-2.787,2.8L13.181,6.4l-.424-2.556,2.787-2.8c.248-.249.341-1.658,0-1.743C13.768-1.144,11.6.316,10.213,1.71,8.728,3.2,8.7,5.863,9.318,7.75l-9.893,8.1c-.937.941-.749,3.274.187,4.215a2.391,2.391,0,0,0,3.392,0l8.89-9.974c1.878.629,4.456.792,5.952-.71a5.18,5.18,0,0,0,1.573-4.954Z" transform="translate(11 10.415)" 
    fill="#16759d"/>
    <path id="Path_2984" data-name="Path 2984" d="M19.288,4.132a.449.449,0,0,0-.755-.209L15.74,6.74l-2.549-.428-.425-2.571L15.559.924A.457.457,0,0,0,15.346.16,5.372,5.372,0,0,0,10.218,1.6C8.729,3.1,8.7,5.775,9.321,7.673L-.4,16.631a2.439,2.439,0,0,0,0,3.428,2.388,2.388,0,0,0,3.4,0l8.9-10.034c1.882.633,4.465.8,5.963-.714a5.484,5.484,0,0,0,1.423-5.179Z" transform="translate(11 9.415)" 
    fill="#5ce1f4"/>
  </g>
</svg>
