<svg width="48" height="48" viewBox="0 0 48 48" fill="none" xmlns="http://www.w3.org/2000/svg">
<path d="M2 28.5623L25.4354 43.1902C33.0758 37.4776 37.3595 34.2748 45 28.5623L21.0967 16.7534L2 28.5623Z" fill="url(#paint0_linear_1624_1424)"/>
<path d="M11.2246 17.5527L26.1494 24.9922L26.4238 25.1289L26.3994 25.4336L25.4492 37.4424L25.3906 38.1777L24.7607 37.7939L10.7861 29.2783L10.5684 29.1455V17.2256L11.2246 17.5527Z" fill="url(#paint1_linear_1624_1424)" stroke="#20ABE0" stroke-width="0.908007"/>
<path d="M15.1836 22.4263L20.1406 25.2983L20.3711 25.4312L20.3672 25.6978L20.3047 29.8911L20.292 30.6929L19.6113 30.271L14.7158 27.2368L14.501 27.104V26.8511L14.5029 22.8188V22.0317L15.1836 22.4263Z" fill="url(#paint7_linear_1624_1424)" stroke="#2F3C50" stroke-width="0.908007"/>
<path d="M36.958 30.0703L36.7754 30.207L26.8311 37.6133L26.165 38.1104L26.1074 37.2812L25.2773 25.3506L25.2656 25.1748L25.375 25.0371L32.8506 15.6328L33.2051 15.1865L33.5605 15.6318L36.8584 19.7529L36.958 19.877V30.0703Z" fill="url(#paint3_linear_1624_1424)" stroke="#20ABE0" stroke-width="0.908007"/>
<path d="M17.5889 7.58887L32.2051 14.4639L32.6543 14.6748L32.4033 15.1035L26.2451 25.6182L26.0078 26.0244L25.6104 25.7725L11.2305 16.6396L10.8252 16.3818L11.1045 15.9912L17.0273 7.73535L17.2471 7.42871L17.5889 7.58887Z" fill="url(#paint4_linear_1624_1424)" stroke="#20ABE0" stroke-width="0.908007"/>
<path d="M33.2715 23.5952L29.6221 26.0308L29.415 26.1694L29.4199 26.4185L29.5889 34.6694L29.6074 35.5532L30.3145 35.0239L33.7949 32.4224L33.9775 32.2856V23.1245L33.2715 23.5952Z" fill="url(#paint7_linear_1624_1424)" stroke="#2F3C50" stroke-width="0.908007"/>
<path d="M11.0225 28.8907L25.7575 38.0224L25.9469 25.398L11.0266 16.7534L11.0225 28.8907Z" fill="#20ABE0"/>
<path d="M19.4541 25.9497L19.4082 29.0757L15.4092 26.5981V23.606L19.4541 25.9497Z" fill="url(#paint7_linear_1624_1424)" stroke="#3E5674" stroke-width="0.908007"/>
<path d="M25.7305 37.8961L36.5044 29.8427V20.0367L32.3984 14.872L25.7305 25.3196V37.8961Z" fill="#1A90BD"/>
<path d="M11.0391 16.759L25.7681 25.3891L32.447 14.9179L17.3107 8L11.0391 16.759Z" fill="url(#paint7_linear_1624_1424)"/>
<path d="M30.4971 26.5684V33.7529L33.0693 31.8301V24.8574L30.4971 26.5684Z" fill="url(#paint7_linear_1624_1424)" stroke="#3E5674" stroke-width="0.908007"/>
<path d="M25.6084 25.2969L25.6233 38.0227" stroke="#20ABE0" stroke-width="0.908007"/>
<path d="M10.7189 16.8719L25.5947 25.3653L32.507 14.7256" stroke="#20ABE0" stroke-width="0.908007"/>
<path d="M2 28.5628L25.4354 43.1906L45 28.5628L21.0967 16.7539L2 28.5628Z" fill="url(#paint9_linear_1624_1424)"/>
<path d="M11.2246 17.5532L26.1494 24.9927L26.4238 25.1294L26.3994 25.4341L25.4492 37.4429L25.3906 38.1782L24.7607 37.7944L10.7861 29.2788L10.5684 29.146V17.2261L11.2246 17.5532Z" fill="url(#paint10_linear_1624_1424)" stroke="#20ABE0" stroke-width="0.908007"/>
<path d="M15.1836 22.4268L20.1406 25.2988L20.3711 25.4316L20.3672 25.6982L20.3047 29.8916L20.292 30.6934L19.6113 30.2715L14.7158 27.2373L14.501 27.1045V26.8516L14.5029 22.8193V22.0322L15.1836 22.4268Z" fill="url(#paint17_linear_1624_1424)" stroke="#2F3C50" stroke-width="0.908007"/>
<path d="M36.957 30.0708L36.7744 30.2075L26.8301 37.6138L26.1641 38.1108L26.1064 37.2817L25.2764 25.3511L25.2646 25.1753L25.374 25.0376L32.8496 15.6333L33.2041 15.187L33.5596 15.6323L36.8574 19.7534L36.957 19.8774V30.0708Z" fill="url(#paint12_linear_1624_1424)" stroke="#20ABE0" stroke-width="0.908007"/>
<path d="M17.5879 7.58887L32.2041 14.4639L32.6533 14.6748L32.4023 15.1035L26.2441 25.6182L26.0068 26.0244L25.6094 25.7725L11.2295 16.6396L10.8242 16.3818L11.1035 15.9912L17.0264 7.73535L17.2461 7.42871L17.5879 7.58887Z" fill="url(#paint13_linear_1624_1424)" stroke="#20ABE0" stroke-width="0.908007"/>
<path d="M33.2715 23.5962L29.6221 26.0317L29.415 26.1704L29.4199 26.4194L29.5889 34.6704L29.6074 35.5542L30.3145 35.0249L33.7949 32.4233L33.9775 32.2866V23.1255L33.2715 23.5962Z" fill="url(#paint17_linear_1624_1424)" stroke="#2F3C50" stroke-width="0.908007"/>
<path d="M11.0225 28.8912L25.7575 38.0229L25.9469 25.3984L11.0266 16.7539L11.0225 28.8912Z" fill="url(#paint15_linear_1624_1424)"/>
<path d="M19.4541 25.9502L19.4082 29.0762L15.4092 26.5986V23.6064L19.4541 25.9502Z" fill="url(#paint17_linear_1624_1424)" stroke="#194D8E" stroke-width="0.908007"/>
<path d="M25.7295 37.8961L36.5034 29.8427V20.0367L32.3974 14.872L25.7295 25.3196V37.8961Z" fill="url(#paint16_linear_1624_1424)"/>
<path d="M11.0391 16.759L25.7681 25.3891L32.447 14.9179L17.3107 8L11.0391 16.759Z" fill="url(#paint17_linear_1624_1424)"/>
<path d="M30.4971 26.6587V33.7544L33.0693 31.8306V24.9116L30.4971 26.6587Z" fill="url(#paint17_linear_1624_1424)" stroke="#194D8E" stroke-width="0.908007"/>
<path d="M25.6075 25.2974L25.6223 38.0232" stroke="#20ABE0" stroke-width="0.908007"/>
<path d="M10.7189 16.8719L25.5947 25.3653L32.507 14.7256" stroke="#20ABE0" stroke-width="0.908007"/>
<defs>
<linearGradient id="paint0_linear_1624_1424" x1="23.5" y1="16.7534" x2="23.5" y2="43.1902" gradientUnits="userSpaceOnUse">
<stop stop-color="#D0E6E6"/>
<stop offset="1" stop-color="#D2DEE3"/>
</linearGradient>
<linearGradient id="paint1_linear_1624_1424" x1="18.4847" y1="16.7535" x2="18.4847" y2="38.0224" gradientUnits="userSpaceOnUse">
<stop stop-color="#DCF5F9"/>
<stop offset="1" stop-color="#B4C3EA"/>
</linearGradient>
<linearGradient id="paint2_linear_1624_1424" x1="17.4341" y1="22.8188" x2="17.4341" y2="29.8847" gradientUnits="userSpaceOnUse">
<stop stop-color="#9EBFD1"/>
<stop offset="1" stop-color="#9EAFC5"/>
</linearGradient>
<linearGradient id="paint3_linear_1624_1424" x1="31.1174" y1="15.1888" x2="33.4124" y2="38.9213" gradientUnits="userSpaceOnUse">
<stop stop-color="#E4F5FF"/>
<stop offset="1" stop-color="#778AA7"/>
</linearGradient>
<linearGradient id="paint4_linear_1624_1424" x1="21.7427" y1="8" x2="21.7427" y2="25.3891" gradientUnits="userSpaceOnUse">
<stop stop-color="#9FC5D4"/>
<stop offset="1" stop-color="#71859E"/>
</linearGradient>
<linearGradient id="paint5_linear_1624_1424" x1="31.6986" y1="23.9731" x2="31.6986" y2="34.6604" gradientUnits="userSpaceOnUse">
<stop stop-color="#9CB7C5"/>
<stop offset="1" stop-color="#445974"/>
</linearGradient>
<linearGradient id="paint6_linear_1624_1424" x1="17.4341" y1="22.8188" x2="17.4341" y2="29.8847" gradientUnits="userSpaceOnUse">
<stop stop-color="#9EBFD1"/>
<stop offset="1" stop-color="#9EAFC5"/>
</linearGradient>
<linearGradient id="paint7_linear_1624_1424" x1="21.743" y1="8" x2="21.743" y2="25.3891" gradientUnits="userSpaceOnUse">
<stop stop-color="#9FC5D4"/>
<stop offset="1" stop-color="#71859E"/>
</linearGradient>
<linearGradient id="paint8_linear_1624_1424" x1="31.6986" y1="23.9731" x2="31.6986" y2="34.6603" gradientUnits="userSpaceOnUse">
<stop stop-color="#9CB7C5"/>
<stop offset="1" stop-color="#445974"/>
</linearGradient>
<linearGradient id="paint9_linear_1624_1424" x1="23.5" y1="16.7539" x2="23.5" y2="43.1906" gradientUnits="userSpaceOnUse">
<stop stop-color="#D0E6E6"/>
<stop offset="1" stop-color="#D2DEE3"/>
</linearGradient>
<linearGradient id="paint10_linear_1624_1424" x1="18.4847" y1="16.754" x2="18.4847" y2="38.0229" gradientUnits="userSpaceOnUse">
<stop stop-color="#DCF5F9"/>
<stop offset="1" stop-color="#B4C3EA"/>
</linearGradient>
<linearGradient id="paint11_linear_1624_1424" x1="17.4341" y1="22.8193" x2="17.4341" y2="29.8852" gradientUnits="userSpaceOnUse">
<stop stop-color="#9EBFD1"/>
<stop offset="1" stop-color="#9EAFC5"/>
</linearGradient>
<linearGradient id="paint12_linear_1624_1424" x1="31.1165" y1="15.1893" x2="33.4115" y2="38.9217" gradientUnits="userSpaceOnUse">
<stop stop-color="#E4F5FF"/>
<stop offset="1" stop-color="#778AA7"/>
</linearGradient>
<linearGradient id="paint13_linear_1624_1424" x1="21.7417" y1="8" x2="21.7417" y2="25.3891" gradientUnits="userSpaceOnUse">
<stop stop-color="#9EC4D3"/>
<stop offset="1" stop-color="#788FA7"/>
</linearGradient>
<linearGradient id="paint14_linear_1624_1424" x1="31.6986" y1="23.9741" x2="31.6986" y2="34.6614" gradientUnits="userSpaceOnUse">
<stop stop-color="#9CB7C5"/>
<stop offset="1" stop-color="#445974"/>
</linearGradient>
<linearGradient id="paint15_linear_1624_1424" x1="18.4847" y1="16.7539" x2="18.4847" y2="38.0229" gradientUnits="userSpaceOnUse">
<stop stop-color="#DCF5F9"/>
<stop offset="1" stop-color="#B4C3EA"/>
</linearGradient>
<linearGradient id="paint16_linear_1624_1424" x1="31.1165" y1="15.1891" x2="33.4115" y2="38.9215" gradientUnits="userSpaceOnUse">
<stop stop-color="#E4F5FF"/>
<stop offset="1" stop-color="#778AA7"/>
</linearGradient>
<linearGradient id="paint17_linear_1624_1424" x1="21.743" y1="8" x2="21.743" y2="25.3891" gradientUnits="userSpaceOnUse">
<stop stop-color="#9EC4D3"/>
<stop offset="1" stop-color="#788FA7"/>
</linearGradient>
</defs>
</svg>
