<svg xmlns="http://www.w3.org/2000/svg" width="32" height="32" viewBox="0 0 32 32">
  <g id="house-icon">
    <!-- White shell -->
    <g fill="#FFFFFF">
      <polygon points="4 23.56 4 9.19 16.01 15.18 16.01 29.56"/>
      <polygon points="28.01 23.56 28.01 9.19 16 15.18 16 29.56"/>
      <polygon points="28.01 9.56 21.35 1.25 10.02 4.97 16 15.56"/>
      <polygon points="4 9.19 10.05 4.93 15.94 15.31"/>
    </g>

    <!-- Blue fill panels -->
    <g fill="#80DDFF">
      <polygon points="6.17 21.40 13.83 25.21 13.83 17.33 6.17 13.65"/>
      <polygon points="25.83 21.40 18.17 25.21 18.17 17.33 25.83 13.65"/>
      <polygon points="25.24 9.04 17.39 12.60 12.83 5.48 20.63 2.83"/>
      <polygon points="6.40 9.55 10.05 6.95 13.50 13.05"/>
    </g>
  </g>
</svg>
