<svg xmlns="http://www.w3.org/2000/svg" viewBox="0 0 32 32" role="img" aria-label="Active outline colors icon">
  <!-- Active icon: dashed 3D outline box -->
  <path fill="#fff" d="
    M28.8 3H11.9c-.1 0-.2 0-.3.1l-8.2 8.2c-.2 0-.3.2-.3.4v.1L3 28.6c0 .1 0 .2.1.3.1.1.2.1.3.1h16.8c.1 0 .2 0 .3-.1l8.4-8.5c.1-.1.1-.2.1-.3V3.4c0-.2-.2-.4-.2-.4z

    M28.4 19.8h-1.3c-.2 0-.4.2-.4.4s.2.4.4.4h.6l-6.9 7.1v-7h0c.2 0 .4-.2.4-.4s-.2-.4-.4-.4h0v-8l7.6-7.5v15.4z

    M4.6 27.4c-.2-.2-.4-.2-.6 0l-.2.2-.1-15.5h7.5c.1.1.2.1.3.1s.3 0 .3-.1h7.7v7.8h-.3c-.2 0-.4.2-.4.4s.2.4.4.4h.3v7.5H4.4l.2-.2c.2-.2.2-.4 0-.6z

    M11.9 4.6c.2 0 .4-.2.4-.4v-.4h15.1l-7.6 7.5h-7.5v-.7c0-.2-.2-.4-.4-.4s-.4.2-.4.4v.7h-7l7-6.9c.1.1.2.2.4.2z

    M11.9 19.8c.2 0 .4-.2.4-.4v-1.2c0-.2-.2-.4-.4-.4s-.4.2-.4.4v1.2c0 .3.2.4.4.4z
    M10.7 21.9c.1 0 .2 0 .3-.1l.9-.9s.1-.1.1-.2h1.2c.2 0 .4-.2.4-.4s-.2-.4-.4-.4H12c-.2 0-.3.1-.4.3-.1 0-.2 0-.3.1l-.9.9c-.2.2-.2.4 0 .6.1 0 .2.1.3.1z
    M11.9 14.8c.2 0 .4-.2.4-.4v-1.2c0-.2-.2-.4-.4-.4s-.4.2-.4.4v1.2c0 .2.2.4.4.4z
    M11.9 17.2c.2 0 .4-.2.4-.4v-1.2c0-.2-.2-.4-.4-.4s-.4.2-.4.4v1.2c0 .3.2.4.4.4z
    M11.9 7.2c.2 0 .4-.2.4-.4V5.5c0-.2-.2-.4-.4-.4s-.4.2-.4.4v1.2c0 .3.2.5.4.5z
    M9 23.6c.1 0 .2 0 .3-.1l.9-.9c.2-.2.2-.4 0-.6s-.4-.2-.6 0l-.9 1c-.2.2-.2.4 0 .6.1 0 .1 0 .3 0z
    M7.2 25.5c.1 0 .2 0 .3-.1l.9-.9c.2-.2.2-.4 0-.6s-.4-.2-.6 0l-.9.9c-.2.2-.2.4 0 .6 0 0 .2.1.3.1z
    M11.9 9.7c.2 0 .4-.2.4-.4V8c0-.2-.2-.4-.4-.4s-.4.2-.4.4v1.2c0 .3.2.5.4.5z
    M5.4 27.2c.1 0 .2 0 .3-.1l.9-.9c.2-.2.2-.4 0-.6s-.4-.2-.6 0l-.9.9c-.2.2-.2.4 0 .6.1.1.2.1.3.1z

    M22 20.7h1.2c.2 0 .4-.2.4-.4s-.2-.4-.4-.4H22c-.2 0-.4.2-.4.4s.2.4.4.4z
    M24.6 20.7h1.2c.2 0 .4-.2.4-.4s-.2-.4-.4-.4h-1.2c-.2 0-.4.2-.4.4s.2.4.4.4z
    M14.5 20.7h1.2c.2 0 .4-.2.4-.4s-.2-.4-.4-.4h-1.2c-.2 0-.4.2-.4.4s.2.4.4.4z
    M17 20.7h1.2c.2 0 .4-.2.4-.4s-.2-.4-.4-.4H17c-.2 0-.4.2-.4.4s.2.4.4.4z"/>
</svg>
