<?xml version="1.0" encoding="UTF-8"?>
<svg viewBox="0 0 32 32" xmlns="http://www.w3.org/2000/svg">
<path d="m28.8 3h-16.9c-0.1 0-0.2 0-0.3 0.1l-8.2 8.2c-0.2 0-0.3 0.2-0.3 0.4v0.1l-0.1 16.8c0 0.1 0 0.2 0.1 0.3s0.2 0.1 0.3 0.1h16.8c0.1 0 0.2 0 0.3-0.1l8.4-8.5c0.1-0.1 0.1-0.2 0.1-0.3v-16.7c0-0.2-0.2-0.4-0.2-0.4zm-0.4 16.8c-0.1 0-0.1 0 0 0h-1.3c-0.2 0-0.4 0.2-0.4 0.4s0.2 0.4 0.4 0.4h0.6l-6.9 7.1v-7c0.2 0 0.4-0.2 0.4-0.4s-0.2-0.4-0.4-0.4v-8l7.6-7.5v15.4zm-23.8 7.6c-0.2-0.2-0.4-0.2-0.6 0l-0.2 0.2-0.1-15.5h7.5c0.1 0.1 0.2 0.1 0.3 0.1s0.3 0 0.3-0.1h7.7v7.8h-0.3c-0.2 0-0.4 0.2-0.4 0.4s0.2 0.4 0.4 0.4h0.3v7.5h-15.1l0.2-0.2c0.2-0.2 0.2-0.4 0-0.6zm7.3-22.8c0.2 0 0.4-0.2 0.4-0.4v-0.4h15.1l-7.6 7.5h-7.5v-0.7c0-0.2-0.2-0.4-0.4-0.4s-0.4 0.2-0.4 0.4v0.7h-7l7-6.9c0.1 0.1 0.2 0.2 0.4 0.2zm0 15.2c0.2 0 0.4-0.2 0.4-0.4v-1.2c0-0.2-0.2-0.4-0.4-0.4s-0.4 0.2-0.4 0.4v1.2c0 0.3 0.2 0.4 0.4 0.4zm-1.2 2.1c0.1 0 0.2 0 0.3-0.1l0.9-0.9s0.1-0.1 0.1-0.2h1.2c0.2 0 0.4-0.2 0.4-0.4s-0.2-0.4-0.4-0.4h-1.2c-0.2 0-0.3 0.1-0.4 0.3-0.1 0-0.2 0-0.3 0.1l-0.9 0.9c-0.2 0.2-0.2 0.4 0 0.6 0.1 0 0.2 0.1 0.3 0.1zm1.2-7.1c0.2 0 0.4-0.2 0.4-0.4v-1.2c0-0.2-0.2-0.4-0.4-0.4s-0.4 0.2-0.4 0.4v1.2c0 0.2 0.2 0.4 0.4 0.4zm0 2.4c0.2 0 0.4-0.2 0.4-0.4v-1.2c0-0.2-0.2-0.4-0.4-0.4s-0.4 0.2-0.4 0.4v1.2c0 0.3 0.2 0.4 0.4 0.4zm0-10c0.2 0 0.4-0.2 0.4-0.4v-1.3c0-0.2-0.2-0.4-0.4-0.4s-0.4 0.2-0.4 0.4v1.2c0 0.3 0.2 0.5 0.4 0.5zm-2.9 16.4c0.1 0 0.2 0 0.3-0.1l0.9-0.9c0.2-0.2 0.2-0.4 0-0.6s-0.4-0.2-0.6 0l-0.9 1c-0.2 0.2-0.2 0.4 0 0.6h0.3zm-1.8 1.9c0.1 0 0.2 0 0.3-0.1l0.9-0.9c0.2-0.2 0.2-0.4 0-0.6s-0.4-0.2-0.6 0l-0.9 0.9c-0.2 0.2-0.2 0.4 0 0.6 0 0 0.2 0.1 0.3 0.1zm4.7-15.8c0.2 0 0.4-0.2 0.4-0.4v-1.3c0-0.2-0.2-0.4-0.4-0.4s-0.4 0.2-0.4 0.4v1.2c0 0.3 0.2 0.5 0.4 0.5zm-6.5 17.5c0.1 0 0.2 0 0.3-0.1l0.9-0.9c0.2-0.2 0.2-0.4 0-0.6s-0.4-0.2-0.6 0l-0.9 0.9c-0.2 0.2-0.2 0.4 0 0.6 0.1 0.1 0.2 0.1 0.3 0.1zm16.6-6.5h1.2c0.2 0 0.4-0.2 0.4-0.4s-0.2-0.4-0.4-0.4h-1.2c-0.2 0-0.4 0.2-0.4 0.4s0.2 0.4 0.4 0.4zm2.6 0h1.2c0.2 0 0.4-0.2 0.4-0.4s-0.2-0.4-0.4-0.4h-1.2c-0.2 0-0.4 0.2-0.4 0.4s0.2 0.4 0.4 0.4zm-10.1 0h1.2c0.2 0 0.4-0.2 0.4-0.4s-0.2-0.4-0.4-0.4h-1.2c-0.2 0-0.4 0.2-0.4 0.4s0.2 0.4 0.4 0.4zm2.5 0h1.2c0.2 0 0.4-0.2 0.4-0.4s-0.2-0.4-0.4-0.4h-1.2c-0.2 0-0.4 0.2-0.4 0.4s0.2 0.4 0.4 0.4z" fill="#F5F5F5"/>
</svg>
