<svg xmlns="http://www.w3.org/2000/svg" width="32" height="32" viewBox="0 0 32 32" fill="none">
  <g id="reset" stroke="#D9D9D9" stroke-linecap="round" stroke-linejoin="round">
    <path id="reset-arc" d="
      M21.69 22.76
      C20.39 24.06 18.72 24.91 16.91 25.19
      C15.10 25.47 13.24 25.17 11.62 24.33
      C9.99 23.48 8.67 22.15 7.86 20.51
      C7.04 18.87 6.77 17.00 7.08 15.20
      C7.38 13.41 8.25 11.75 9.58 10.46
      C10.90 9.19 12.60 8.36 14.39 8.11
      C16.19 7.86 18.05 8.19 19.67 9.06
      C21.28 9.92 22.58 11.28 23.37 12.93
    " stroke-width="4.46"/>
  </g>

  <path id="arrow-head" d="
    M27.67 17.50
    C27.71 18.02 27.21 18.40 26.72 18.24
    L17.99 15.37
    C17.44 15.19 17.31 14.47 17.77 14.11
    L25.82 7.82
    C26.28 7.46 26.95 7.76 26.99 8.33
    L27.67 17.50Z
  " fill="#D9D9D9" stroke="#D9D9D9" stroke-width="0.48"/>
</svg>
