<svg width="32" height="32" viewBox="0 0 32 32" fill="none" xmlns="http://www.w3.org/2000/svg">
<g clip-path="url(#clip0_1664_3384)">
<rect x="4.56543" y="16.0479" width="16.0111" height="12.2545" fill="#f7f1f1"/>
<path d="M12.18 7.17773C12.3492 7.02601 12.6056 7.02601 12.7748 7.17773L23.3554 16.6614C23.6598 16.9343 23.4668 17.4389 23.0579 17.4389H1.89684C1.488 17.4389 1.29497 16.9343 1.59941 16.6614L12.18 7.17773Z" fill="#D9D9D9"/>
<rect x="4.56543" y="16.0479" width="16.0111" height="12.2545" fill="#20ABE0"/>
<path d="M12.18 7.17773C12.3492 7.02601 12.6056 7.02601 12.7748 7.17773L23.3554 16.6614C23.6598 16.9343 23.4668 17.4389 23.0579 17.4389H1.89684C1.488 17.4389 1.29497 16.9343 1.59941 16.6614L12.18 7.17773Z"
 fill="#20ABE0"/>
<path d="M19.6895 4.3291C19.824 4.2085 20.01 4.2085 20.1445 4.3291L30.7686 13.8516C31.0564 14.1095 30.9021 14.6523 30.541 14.6523H28.0166V25.5146H22.915V18.1084H26.4893C26.8981 18.1084 27.0916 17.6039 26.7871 17.3311L16.2061 7.84766C16.1161 7.76709 16.0017 7.72923 15.8887 7.73438L19.6895 4.3291Z" fill="#D9D9D9"/>
</g>
<defs>
<clipPath id="clip0_1664_3384">
<rect width="32" height="32" fill="white"/>
</clipPath>
</defs>
</svg>
