<svg xmlns="http://www.w3.org/2000/svg" viewBox="0 0 1499.18 1499.18">
  <!-- White outer border with transparent center -->
  <path
    fill="#fff"
    fill-rule="evenodd"
    d="M1499.18,299.84C1499.18,134.35,1364.84,0,1199.35,0H299.84C134.35,0,0,134.35,0,299.84v899.51c0,165.49,134.35,299.83,299.84,299.83h899.51c165.49,0,299.83-134.34,299.83-299.83Z
       M1417.4,321c0-132.8-107.83-240.61-240.62-240.61H321.27C188.48,80.41,80.66,188.22,80.66,321v857.79c0,132.8,107.82,240.61,240.61,240.61h855.51c132.79,0,240.62-107.81,240.62-240.61Z"/>

  <!-- Flipped horizontally so faucet points right -->
  <g transform="translate(1499.18 0) scale(-1 1)">
    <!-- Main water drop -->
    <path
      fill="#5ce1f4"
      fill-rule="evenodd"
      d="M372.94,720.16s-168.15,327.59-180.89,383.2C181.91,1149.54,164.12,1328,372.53,1328s193.14-186.86,185.53-220C540.69,1035.81,372.94,720.16,372.94,720.16Z"/>

    <!-- Faucet / pipe -->
    <path
      fill="#c1c1c1"
      fill-rule="evenodd"
      d="M634.1,320.4h0l660.7,2.39V496.51l-660.42-2.45c-92.19,1.37-166.57,78.58-166.57,173.6v3.08l-169.06,3c0-2-.06-4-.06-6.09C298.69,476.82,448.63,321.94,634.1,320.4Z"/>

    <path
      fill="#c1c1c1"
      fill-rule="evenodd"
      d="M1402.85,238.38c1.2,2.35,3.48,9.84,5.16,15.78,1.8,6.25,5.64,21.1,7,32.48,1.56,12.75,2.52,23.89,2.52,44.75,0,82.3.24,168.37-.12,250.49-43.13-1.42-85.25-19.55-125.15-60.58V298.46C1332.12,266,1359.78,248.65,1402.85,238.38Z"/>

    <path
      fill="#c1c1c1"
      fill-rule="evenodd"
      d="M1052,336.64a68.23,68.23,0,0,0-68.24-68.19H759.55a68.27,68.27,0,0,0-68.24,68.19V473.11a68.27,68.27,0,0,0,68.24,68.19H983.74A68.23,68.23,0,0,0,1052,473.11Z"/>

    <path
      fill="#c1c1c1"
      fill-rule="evenodd"
      d="M953.75,271.8c0-34.61-34-62.71-75.87-62.71s-75.82,28.1-75.82,62.71Z"/>

    <path
      fill="#c1c1c1"
      fill-rule="evenodd"
      d="M915.32,148.41a18.16,18.16,0,0,0-18.17-18.11H860.93a18.16,18.16,0,0,0-18.17,18.11V255.47a18.17,18.17,0,0,0,18.17,18.12h36.22a18.17,18.17,0,0,0,18.17-18.12Z"/>

    <path
      fill="#c1c1c1"
      fill-rule="evenodd"
      d="M1064.92,168.93a22.64,22.64,0,0,0-22.69-22.65H719a22.65,22.65,0,1,0,0,45.29h323.22A22.64,22.64,0,0,0,1064.92,168.93Z"/>
  </g>
</svg>
